<?xml version="1.0" standalone="no"?>
<!DOCTYPE svg PUBLIC "-//W3C//DTD SVG 20010904//EN"
 "http://www.w3.org/TR/2001/REC-SVG-20010904/DTD/svg10.dtd">
<svg version="1.0" xmlns="http://www.w3.org/2000/svg"
 width="3167.000000pt" height="2112.000000pt" viewBox="0 0 3167.000000 2112.000000"
 preserveAspectRatio="xMidYMid meet">

<g transform="translate(0.000000,2112.000000) scale(0.100000,-0.100000)"
fill="#000000" stroke="none">
<path d="M25668 16046 c-10 -7 -18 -16 -18 -20 0 -9 -43 -70 -52 -74 -5 -2 -8
-8 -8 -13 0 -13 -39 -68 -67 -96 -13 -12 -23 -25 -23 -28 0 -4 -51 -58 -114
-121 -63 -63 -112 -114 -109 -114 3 0 19 6 36 14 18 7 52 22 77 32 134 55 282
213 354 377 l26 57 -43 0 c-23 0 -50 -7 -59 -14z"/>
<path d="M25990 16050 c0 -17 71 -163 105 -215 79 -122 248 -250 340 -256 29
-3 50 0 52 7 4 13 -26 46 -92 99 -51 41 -125 117 -166 170 -13 17 -27 32 -31
33 -5 2 -8 8 -8 13 0 11 -88 129 -109 147 -18 14 -91 16 -91 2z"/>
<path d="M6840 15725 c0 -70 4 -115 10 -115 6 0 10 45 10 115 0 70 -4 115 -10
115 -6 0 -10 -45 -10 -115z"/>
<path d="M6927 15788 c8 -59 13 -61 13 -5 0 26 -4 47 -9 47 -5 0 -7 -19 -4
-42z"/>
<path d="M6731 15724 c0 -11 3 -14 6 -6 3 7 2 16 -1 19 -3 4 -6 -2 -5 -13z"/>
<path d="M6938 15703 c5 -21 7 -23 10 -9 2 10 0 22 -6 28 -6 6 -7 0 -4 -19z"/>
<path d="M6961 15567 c-1 -98 11 -122 23 -50 4 21 9 53 12 71 4 21 2 32 -5 32
-7 0 -16 10 -21 23 -6 15 -9 -7 -9 -76z"/>
<path d="M6700 15610 c0 -11 2 -20 4 -20 2 0 6 9 9 20 3 11 1 20 -4 20 -5 0
-9 -9 -9 -20z"/>
<path d="M25142 15504 c-12 -81 -49 -151 -118 -223 -23 -25 -40 -51 -37 -58 8
-20 616 -19 632 1 10 12 5 16 -26 26 -45 13 -52 16 -164 68 -100 46 -185 124
-221 203 -35 75 -52 70 -66 -17z"/>
<path d="M6670 15545 c0 -15 4 -24 10 -20 6 3 10 12 10 20 0 8 -4 17 -10 20
-6 4 -10 -5 -10 -20z"/>
<path d="M6823 15525 c0 -27 2 -38 4 -22 2 15 2 37 0 50 -2 12 -4 0 -4 -28z"/>
<path d="M7005 15543 c2 -10 4 -21 4 -25 2 -21 21 -5 21 17 0 15 -6 25 -14 25
-8 0 -13 -8 -11 -17z"/>
<path d="M26455 15513 c-63 -85 -273 -247 -336 -260 -16 -3 -36 -14 -45 -24
-17 -19 -10 -19 299 -21 175 -1 328 -2 342 -2 42 -1 31 17 -39 64 -84 58 -133
128 -160 229 -7 25 -17 46 -23 48 -5 2 -23 -13 -38 -34z"/>
<path d="M6640 15479 c0 -11 4 -18 10 -14 5 3 7 12 3 20 -7 21 -13 19 -13 -6z"/>
<path d="M6700 15471 c0 -6 5 -13 10 -16 6 -3 10 1 10 9 0 9 -4 16 -10 16 -5
0 -10 -4 -10 -9z"/>
<path d="M6610 15425 c0 -14 5 -25 10 -25 6 0 10 11 10 25 0 14 -4 25 -10 25
-5 0 -10 -11 -10 -25z"/>
<path d="M7521 15433 c0 -12 -8 -29 -17 -37 -8 -9 -14 -26 -12 -38 3 -20 6
-19 22 14 9 20 16 47 13 60 -4 22 -4 22 -6 1z"/>
<path d="M6140 15351 c0 -75 8 -98 26 -70 5 8 10 6 16 -5 9 -17 38 -22 38 -7
0 4 -18 43 -40 86 l-40 78 0 -82z"/>
<path d="M6580 15374 c0 -8 5 -12 10 -9 6 3 10 10 10 16 0 5 -4 9 -10 9 -5 0
-10 -7 -10 -16z"/>
<path d="M6685 15327 c4 -33 3 -38 -5 -22 -8 16 -9 15 -4 -10 4 -16 8 -42 8
-57 2 -32 16 -50 17 -22 0 10 2 47 3 81 2 45 -1 63 -11 67 -10 4 -12 -4 -8
-37z"/>
<path d="M6791 15268 c0 -42 4 -80 9 -83 12 -7 12 84 0 130 -6 22 -8 10 -9
-47z"/>
<path d="M6990 15221 c0 -40 4 -70 8 -67 9 5 5 126 -3 135 -3 2 -5 -28 -5 -68z"/>
<path d="M6495 15260 c3 -5 8 -10 11 -10 2 0 4 5 4 10 0 6 -5 10 -11 10 -5 0
-7 -4 -4 -10z"/>
<path d="M6443 15204 c-18 -19 -33 -39 -33 -44 0 -6 -7 -10 -15 -10 -8 0 -15
-5 -15 -10 0 -16 31 3 68 41 18 18 32 39 32 46 0 17 1 17 -37 -23z"/>
<path d="M6220 15029 c-94 -103 -319 -161 -535 -138 -110 11 -245 38 -260 51
-5 4 -20 8 -33 8 l-25 0 24 -23 c67 -65 178 -126 267 -147 69 -16 133 -16 812
-7 358 5 752 4 1045 -2 449 -10 473 -10 545 9 109 27 139 40 198 83 51 38 79
73 68 85 -3 3 -16 0 -29 -6 -58 -29 -250 -61 -372 -61 -187 -1 -409 73 -494
163 -34 36 -44 35 -95 -11 -20 -17 -124 -68 -176 -86 -170 -58 -572 -44 -700
24 -8 4 -45 22 -82 40 -37 17 -73 38 -79 45 -18 22 -42 14 -79 -27z"/>
<path d="M6595 15010 c-18 -8 -17 -9 8 -9 16 -1 26 3 22 9 -3 6 -7 10 -8 9 -1
0 -11 -4 -22 -9z"/>
<path d="M25085 14384 c-4 -10 -10 -26 -15 -34 -5 -8 -26 -49 -47 -90 -40 -80
-65 -120 -99 -160 -12 -14 -25 -35 -29 -48 l-7 -24 369 5 c202 2 367 7 366 10
-2 4 -3 11 -3 17 0 5 -19 14 -42 20 -79 19 -199 60 -262 90 -56 27 -166 114
-166 132 0 4 -13 28 -30 54 -24 39 -30 44 -35 28z"/>
<path d="M26542 14331 c-130 -119 -177 -153 -272 -199 -47 -22 -101 -45 -120
-50 -24 -5 -35 -14 -35 -26 0 -17 22 -18 378 -21 l377 -2 -43 41 c-24 23 -53
47 -65 55 -30 21 -85 96 -129 178 l-39 71 -52 -47z"/>
<path d="M6145 13776 c-43 -44 -76 -70 -126 -99 -187 -109 -440 -127 -702 -51
-31 10 -60 14 -64 11 -18 -19 108 -108 205 -146 l67 -26 842 4 c499 2 1007 -2
1250 -9 531 -15 613 -5 755 91 33 23 69 50 79 60 19 19 19 19 -3 19 -13 0 -68
-11 -123 -25 -83 -21 -124 -25 -241 -25 -138 0 -210 11 -324 51 -44 15 -152
85 -212 138 -25 23 -49 41 -52 41 -4 0 -39 -25 -79 -55 -84 -63 -162 -99 -267
-126 -100 -25 -303 -49 -365 -43 -216 21 -279 35 -378 85 -80 41 -93 48 -160
97 -33 23 -62 41 -66 41 -3 -1 -20 -16 -36 -33z"/>
<path d="M25041 13168 c-14 -35 -40 -85 -59 -113 -44 -64 -152 -170 -182 -180
-60 -19 32 -25 395 -25 359 0 472 7 389 25 -234 50 -489 212 -513 327 -6 27
-8 24 -30 -34z"/>
<path d="M26610 13198 c0 -21 -114 -131 -188 -181 -77 -53 -220 -124 -278
-138 -38 -10 -44 -14 -28 -20 27 -11 776 -11 793 0 10 6 4 12 -21 20 -65 22
-212 188 -248 281 -16 43 -30 60 -30 38z"/>
<path d="M6057 12425 c-126 -119 -267 -164 -513 -165 -135 0 -262 17 -306 41
-24 12 -48 11 -48 -3 0 -20 79 -85 143 -116 43 -21 89 -34 148 -41 54 -7 558
-13 1389 -16 1436 -5 1375 -7 1504 56 75 38 156 97 156 115 0 15 -12 19 -24 7
-29 -29 -327 -59 -481 -48 -143 9 -288 68 -371 150 -28 28 -63 59 -77 68 -29
19 -57 22 -57 8 0 -12 -148 -110 -210 -139 -70 -33 -95 -41 -199 -64 -131 -29
-482 -31 -576 -4 -94 27 -250 95 -265 115 -3 4 -21 17 -40 28 -20 12 -46 33
-59 47 -14 14 -29 26 -35 26 -6 -1 -42 -30 -79 -65z"/>
<path d="M24982 11902 c-71 -107 -169 -222 -191 -222 -5 0 -14 -6 -20 -14 -9
-10 -8 -16 4 -26 19 -16 781 -8 798 9 7 7 6 12 -4 15 -8 3 -57 19 -109 36
-148 49 -319 153 -366 223 -11 15 -29 34 -40 42 -20 13 -24 10 -72 -63z"/>
<path d="M26629 11947 c-24 -18 -61 -49 -83 -69 -53 -52 -130 -101 -254 -164
-59 -30 -109 -60 -113 -67 -6 -9 78 -13 382 -16 361 -4 389 -3 383 13 -4 9
-18 23 -33 30 -68 36 -201 199 -215 263 -4 18 -11 35 -15 37 -4 3 -27 -9 -52
-27z"/>
<path d="M690 11200 c-41 -3 -95 -12 -120 -19 -108 -30 -181 -54 -186 -62 -3
-5 -12 -9 -20 -9 -8 0 -33 -12 -57 -27 -54 -35 -79 -51 -95 -59 -19 -9 -72
-55 -96 -83 -12 -13 -33 -37 -48 -52 -14 -15 -29 -37 -33 -48 -3 -12 -13 -21
-21 -21 -11 0 -14 -16 -14 -70 0 -68 1 -70 25 -70 14 0 28 -7 31 -15 4 -8 14
-15 24 -15 10 0 23 -7 30 -15 7 -8 29 -15 49 -15 20 0 49 -7 65 -15 39 -21 57
-19 84 10 19 20 35 25 85 27 34 2 77 -1 95 -6 28 -8 36 -6 61 18 27 26 30 27
39 10 10 -18 11 -18 29 -1 27 23 184 25 203 2 12 -14 15 -14 30 0 21 19 74 19
90 0 7 -8 20 -15 30 -15 10 0 23 7 30 15 17 21 89 19 113 -2 17 -16 20 -16 30
-2 14 19 28 16 115 -24 16 -8 26 -7 34 1 9 9 16 8 28 -3 15 -14 18 -14 30 0
10 12 36 15 120 15 l108 0 41 48 c43 49 51 76 26 86 -8 3 -15 12 -15 21 0 8
-4 15 -9 15 -5 0 -12 8 -15 18 -8 23 -89 108 -146 151 -25 19 -49 39 -55 45
-5 6 -30 21 -55 34 -25 12 -52 27 -60 31 -14 8 -31 16 -123 55 -21 9 -49 16
-63 16 -14 0 -49 6 -77 14 -64 18 -236 26 -337 16z"/>
<path d="M6040 11070 c-116 -106 -217 -150 -396 -171 -134 -17 -337 0 -444 35
-41 14 -80 26 -87 26 -23 0 -1 -29 51 -68 69 -53 141 -88 196 -97 25 -4 58
-13 74 -21 16 -8 41 -14 55 -15 20 -1 17 -3 -14 -11 -27 -6 -65 -5 -120 3 -44
7 -163 13 -265 13 -157 1 -192 -2 -235 -18 -146 -54 -232 -117 -305 -221 -19
-27 -37 -52 -40 -55 -3 -3 -15 -27 -28 -55 -13 -27 -27 -57 -31 -65 -5 -9 -12
-30 -15 -48 -4 -17 -12 -34 -17 -37 -5 -4 -9 -19 -9 -34 0 -15 -7 -36 -15 -47
-8 -10 -15 -36 -15 -58 0 -33 2 -37 15 -26 8 7 15 22 15 33 0 31 18 8 22 -28
3 -29 6 -30 72 -42 45 -8 78 -21 93 -35 18 -17 26 -19 35 -10 16 16 85 16 90
0 3 -7 12 -9 22 -5 11 4 16 13 12 22 -3 8 3 19 13 25 14 7 23 5 37 -11 12 -13
21 -16 28 -9 5 5 17 10 26 10 9 0 25 9 35 20 22 24 83 28 91 5 4 -10 20 -15
46 -15 22 0 48 -5 59 -10 13 -7 19 -7 19 0 0 16 40 11 47 -6 11 -28 99 -9 149
32 23 19 45 34 48 34 3 0 6 -12 6 -27 0 -16 3 -46 7 -68 6 -36 7 -38 14 -15
11 39 10 128 -1 132 -6 2 26 2 70 0 93 -5 111 13 24 24 -35 4 -51 10 -43 15 7
4 16 6 20 3 4 -2 23 3 42 12 l34 16 7 237 c3 130 4 255 1 278 -2 24 0 45 6 49
6 3 592 6 1302 6 1497 -1 1449 -3 1624 80 63 31 112 72 99 85 -3 4 -30 0 -59
-9 -49 -16 -129 -29 -257 -43 -93 -11 -317 21 -407 57 -74 30 -176 97 -252
167 -41 37 -43 37 -66 11 -41 -45 -179 -128 -270 -162 -90 -34 -115 -40 -220
-54 -202 -26 -440 -13 -578 30 -52 17 -196 86 -223 108 -9 7 -37 32 -63 56
-27 23 -50 42 -52 42 -2 0 -38 -32 -79 -70z"/>
<path d="M28920 11129 c-30 -4 -89 -12 -130 -18 -86 -12 -151 -27 -198 -47
-18 -8 -40 -14 -50 -14 -9 0 -26 -7 -36 -15 -11 -8 -27 -15 -35 -15 -17 0
-139 -58 -157 -75 -6 -5 -27 -19 -47 -30 -20 -11 -37 -23 -37 -27 0 -5 -7 -8
-15 -8 -7 0 -18 -6 -22 -13 -4 -7 -19 -20 -33 -28 -37 -24 -131 -117 -170
-169 -19 -25 -40 -49 -47 -53 -7 -4 -13 -15 -13 -22 0 -8 -4 -15 -10 -15 -5 0
-10 -4 -10 -10 0 -5 -9 -19 -20 -30 -12 -12 -18 -25 -15 -30 9 -15 25 -12 25
5 0 25 16 17 41 -19 20 -29 26 -33 43 -24 15 8 21 8 24 -1 4 -13 38 -15 46 -3
6 11 64 3 72 -9 9 -15 130 -10 180 7 35 12 49 13 54 4 5 -7 20 -9 43 -5 20 4
35 10 33 14 -3 4 24 5 60 3 36 -3 70 0 77 6 8 7 29 7 61 1 33 -6 53 -6 60 1
15 15 329 13 344 -2 9 -9 17 -8 37 2 21 11 29 11 49 0 16 -8 43 -11 72 -7 26
2 60 0 76 -5 22 -8 44 -6 87 6 31 9 75 16 97 16 23 0 44 3 48 8 4 4 22 7 39 8
18 0 82 2 142 4 61 1 116 7 122 12 7 6 19 8 28 5 8 -4 17 -2 20 3 4 6 14 10
23 10 10 0 35 9 57 20 22 11 44 20 50 20 5 1 17 16 26 35 13 28 14 35 2 39 -7
3 -13 11 -13 17 0 12 -122 139 -134 139 -4 0 -12 5 -19 10 -34 29 -143 103
-180 122 -23 12 -44 24 -47 27 -6 7 -61 34 -110 54 -110 45 -202 73 -270 82
-25 3 -74 10 -110 15 -75 11 -133 11 -210 -1z"/>
<path d="M26670 10737 c0 -34 -183 -173 -315 -240 -155 -78 -175 -87 -198 -87
-18 0 -19 -2 -7 -10 18 -12 847 -14 854 -2 2 4 -16 18 -42 30 -80 38 -242 217
-242 268 0 12 -34 54 -44 54 -3 0 -6 -6 -6 -13z"/>
<path d="M24956 10677 c-14 -28 -38 -68 -53 -87 -53 -66 -156 -170 -175 -175
-10 -4 -16 -11 -13 -16 9 -13 822 -12 830 1 3 6 -1 10 -10 10 -21 0 -151 38
-185 53 -42 20 -205 110 -210 117 -3 3 -22 19 -42 34 -21 15 -50 48 -65 72
-15 24 -33 44 -40 44 -7 0 -24 -24 -37 -53z"/>
<path d="M27850 10469 c0 -11 5 -17 10 -14 6 3 10 13 10 21 0 8 -4 14 -10 14
-5 0 -10 -9 -10 -21z"/>
<path d="M27820 10424 c0 -8 5 -12 10 -9 6 4 8 11 5 16 -9 14 -15 11 -15 -7z"/>
<path d="M20194 10185 c-10 -8 -26 -15 -35 -15 -9 0 -19 -7 -23 -15 -3 -8 -12
-15 -21 -15 -8 0 -15 -5 -15 -10 0 -6 -10 -21 -22 -33 -29 -28 -68 -83 -68
-96 0 -5 -4 -11 -10 -13 -5 -1 -11 -14 -13 -27 -2 -14 -9 -27 -15 -29 -15 -5
-16 -52 -2 -52 6 0 10 11 10 25 0 16 6 25 15 25 8 0 15 9 15 20 0 23 28 27 36
5 4 -10 21 -14 62 -13 32 0 62 4 67 8 16 12 84 19 90 11 9 -16 56 -19 62 -5 6
16 49 19 58 4 10 -17 51 -11 79 11 15 12 33 18 44 15 23 -8 57 27 48 49 -3 9
1 18 9 21 22 9 18 27 -4 21 -14 -3 -17 0 -14 14 3 11 0 19 -6 19 -6 0 -11 7
-11 15 0 8 -7 15 -15 15 -9 0 -18 7 -21 15 -4 8 -18 15 -34 15 -15 0 -33 7
-40 15 -18 21 -198 21 -226 0z m-124 -169 c0 -3 -4 -8 -10 -11 -5 -3 -10 -1
-10 4 0 6 5 11 10 11 6 0 10 -2 10 -4z"/>
<path d="M4350 10065 c0 -8 5 -15 10 -15 6 0 10 7 10 15 0 8 -4 15 -10 15 -5
0 -10 -7 -10 -15z"/>
<path d="M20590 10040 c0 -5 5 -10 10 -10 6 0 10 5 10 10 0 6 -4 10 -10 10 -5
0 -10 -4 -10 -10z"/>
<path d="M20620 10010 c0 -5 5 -10 10 -10 6 0 10 5 10 10 0 6 -4 10 -10 10 -5
0 -10 -4 -10 -10z"/>
<path d="M3778 9923 c23 -2 59 -2 80 0 20 2 1 4 -43 4 -44 0 -61 -2 -37 -4z"/>
<path d="M30674 9911 c-66 -5 -130 -13 -142 -20 -11 -6 -38 -11 -59 -11 -21
-1 -56 -7 -78 -15 -22 -8 -52 -15 -66 -15 -14 0 -34 -7 -45 -15 -10 -8 -32
-15 -49 -15 -16 0 -39 -7 -49 -15 -11 -8 -29 -15 -40 -15 -12 0 -30 -7 -40
-15 -11 -8 -30 -15 -42 -15 -13 0 -25 -4 -28 -9 -8 -13 -84 -51 -101 -51 -8 0
-15 -4 -15 -10 0 -5 -11 -12 -24 -16 -14 -3 -27 -12 -30 -20 -3 -8 -12 -14
-21 -14 -8 0 -15 -4 -15 -10 0 -5 -11 -12 -25 -16 -14 -3 -25 -10 -25 -14 0
-4 11 -16 25 -26 14 -10 25 -28 25 -39 0 -26 70 -89 84 -75 14 14 82 12 94 -3
14 -17 277 -16 294 1 7 7 20 12 29 12 9 0 22 7 29 15 11 13 16 12 42 -10 26
-22 32 -23 51 -11 30 19 135 28 158 13 14 -9 22 -7 38 7 18 17 21 17 43 2 17
-12 47 -16 118 -16 56 0 101 -5 107 -11 7 -7 17 -7 29 -1 50 27 42 26 286 40
87 4 142 12 150 20 6 6 20 12 31 12 10 0 15 5 12 10 -12 19 25 10 46 -11 17
-17 23 -18 36 -8 12 11 17 10 25 -4 12 -23 28 -12 28 19 0 25 18 32 37 13 16
-16 30 -4 53 41 24 46 27 110 6 110 -8 0 -16 7 -20 15 -3 8 -15 15 -26 15 -11
0 -23 7 -26 15 -4 8 -16 15 -29 15 -13 0 -25 7 -29 15 -3 8 -15 15 -26 15 -12
0 -28 7 -36 15 -9 8 -25 15 -37 15 -12 0 -31 7 -41 15 -11 8 -29 15 -41 15
-12 0 -26 5 -31 10 -6 6 -33 15 -60 20 -27 5 -67 13 -89 19 -55 14 -344 21
-491 12z m-759 -421 c3 -5 -1 -10 -10 -10 -9 0 -13 5 -10 10 3 6 8 10 10 10 2
0 7 -4 10 -10z"/>
<path d="M19931 9844 c0 -11 3 -14 6 -6 3 7 2 16 -1 19 -3 4 -6 -2 -5 -13z"/>
<path d="M6020 9709 c-159 -144 -323 -198 -604 -199 -157 0 -238 12 -334 52
-104 41 -120 31 -51 -33 95 -88 226 -141 348 -142 42 0 668 1 1391 2 723 1
1362 -1 1420 -4 91 -6 118 -4 195 15 110 28 204 74 269 134 40 37 46 47 33 52
-10 3 -23 2 -30 -4 -16 -14 -118 -46 -192 -62 -110 -22 -315 -25 -418 -5 -185
36 -275 80 -403 198 -28 26 -57 47 -64 47 -7 0 -43 -24 -79 -54 -87 -71 -184
-121 -301 -153 -111 -32 -346 -57 -450 -49 -190 14 -319 44 -450 105 -38 18
-170 112 -190 136 -19 23 -30 18 -90 -36z"/>
<path d="M12446 9691 c-3 -5 -34 -12 -68 -16 -34 -4 -69 -11 -78 -15 -8 -5
-48 -24 -87 -44 -80 -38 -87 -44 -141 -98 -46 -46 -56 -58 -65 -80 -7 -20 17
-26 28 -7 5 7 14 4 27 -8 18 -16 36 -18 172 -15 86 2 167 9 188 17 23 8 40 9
46 3 6 -6 17 -6 30 1 26 14 109 14 117 1 4 -7 13 -6 27 1 27 14 165 15 201 0
45 -18 85 -14 92 9 7 23 25 26 43 8 9 -9 12 -9 12 -1 0 7 -4 15 -10 18 -5 3
-10 12 -10 18 0 7 5 4 11 -5 12 -22 29 -23 29 -3 0 8 -4 15 -10 15 -5 0 -10 5
-10 10 0 6 -9 19 -20 30 -11 11 -24 20 -30 20 -5 0 -10 5 -10 11 0 5 -13 15
-30 20 -16 6 -30 15 -30 20 0 5 -9 9 -20 9 -11 0 -23 7 -26 15 -4 8 -17 15
-29 15 -13 0 -30 7 -39 15 -8 8 -31 15 -51 15 -19 0 -52 7 -72 15 -39 16 -178
21 -187 6z"/>
<path d="M29700 9539 c0 -5 5 -7 10 -4 6 3 10 8 10 11 0 2 -4 4 -10 4 -5 0
-10 -5 -10 -11z"/>
<path d="M24932 9406 c-23 -47 -52 -98 -65 -113 -46 -55 -133 -141 -147 -146
-13 -5 -13 -7 0 -16 18 -12 668 -14 740 -2 49 8 46 11 -50 36 -71 18 -227 96
-300 150 -63 46 -91 78 -115 132 l-21 45 -42 -86z"/>
<path d="M26615 9406 c-90 -93 -247 -192 -375 -235 -101 -34 -98 -32 -75 -41
28 -12 806 -12 825 0 12 7 8 12 -19 23 -71 30 -213 191 -250 285 -8 18 -20 32
-30 31 -9 0 -43 -28 -76 -63z"/>
<path d="M13020 9451 c0 -6 5 -13 10 -16 6 -3 10 1 10 9 0 9 -4 16 -10 16 -5
0 -10 -4 -10 -9z"/>
<path d="M13796 9451 c-3 -5 -44 -10 -91 -13 -47 -2 -91 -10 -97 -16 -7 -7
-23 -12 -37 -12 -15 0 -39 -7 -55 -15 -15 -8 -36 -15 -46 -15 -10 0 -25 -7
-34 -15 -8 -8 -22 -15 -31 -15 -8 0 -18 -7 -21 -15 -4 -8 -14 -15 -24 -15 -27
0 -35 -20 -11 -27 28 -7 26 -17 -6 -42 -14 -12 -23 -24 -19 -28 4 -4 11 -1 16
7 6 8 10 11 10 6 0 -5 9 -1 19 8 11 10 25 15 30 11 6 -3 11 2 11 13 0 11 -7
22 -15 26 -8 3 -15 10 -15 16 0 18 20 11 43 -15 29 -33 118 -46 344 -52 l171
-4 26 25 c14 15 28 22 31 16 10 -16 52 -12 59 6 12 30 -49 104 -85 104 -11 0
-19 5 -19 11 0 6 12 9 27 7 45 -5 39 21 -6 28 -23 4 -44 11 -47 15 -7 12 -121
12 -128 0z m-113 -58 c-7 -2 -19 -2 -25 0 -7 3 -2 5 12 5 14 0 19 -2 13 -5z
m-103 -23 c0 -5 -11 -10 -25 -10 -14 0 -25 5 -25 10 0 6 11 10 25 10 14 0 25
-4 25 -10z m-90 -30 c0 -5 -11 -10 -25 -10 -14 0 -25 5 -25 10 0 6 11 10 25
10 14 0 25 -4 25 -10z m470 -30 c0 -5 -4 -10 -10 -10 -5 0 -10 5 -10 10 0 6 5
10 10 10 6 0 10 -4 10 -10z"/>
<path d="M10405 9433 c-22 -2 -49 -8 -60 -13 -11 -5 -37 -11 -57 -15 -21 -3
-38 -10 -38 -15 0 -6 -11 -10 -25 -10 -13 0 -28 -6 -32 -13 -4 -8 -16 -17 -26
-20 -10 -4 -15 -12 -12 -18 5 -7 13 -5 24 5 10 9 29 16 43 16 14 0 28 7 32 15
6 17 42 20 51 5 5 -8 11 -7 21 1 8 6 18 8 22 4 4 -4 1 -10 -5 -12 -7 -3 -13
-9 -13 -14 0 -11 127 -6 138 6 15 15 -32 35 -70 29 -23 -4 -38 -3 -38 4 0 5 6
12 13 14 14 5 99 3 167 -5 25 -2 34 -3 20 0 -14 2 -29 10 -35 17 -12 15 -63
23 -120 19z"/>
<path d="M11980 9394 c0 -8 5 -12 10 -9 6 3 10 10 10 16 0 5 -4 9 -10 9 -5 0
-10 -7 -10 -16z"/>
<path d="M14010 9395 c0 -8 7 -15 15 -15 8 0 15 7 15 15 0 8 -7 15 -15 15 -8
0 -15 -7 -15 -15z"/>
<path d="M14050 9371 c0 -6 5 -13 10 -16 6 -3 10 1 10 9 0 9 -4 16 -10 16 -5
0 -10 -4 -10 -9z"/>
<path d="M14077 9343 c-13 -13 -7 -53 8 -53 10 0 15 10 15 30 0 29 -9 38 -23
23z"/>
<path d="M13300 9275 c0 -8 -7 -15 -15 -15 -8 0 -15 -7 -15 -15 0 -8 -7 -15
-15 -15 -9 0 -15 -9 -15 -22 0 -18 6 -15 45 24 49 50 53 58 30 58 -8 0 -15 -7
-15 -15z"/>
<path d="M23765 9204 c-177 -91 -314 -269 -409 -534 -15 -41 -33 -88 -41 -103
-8 -16 -15 -41 -15 -55 0 -15 -7 -40 -15 -56 -17 -31 -21 -131 -5 -121 5 3 12
22 16 41 6 31 8 33 23 21 9 -8 48 -20 86 -26 39 -7 80 -18 93 -24 16 -7 26 -8
30 -1 14 21 50 26 227 31 234 6 238 6 279 -12 10 -4 21 -4 25 1 3 5 31 9 61 9
30 0 96 1 145 3 148 3 165 1 165 -20 0 -10 4 -18 9 -18 5 0 12 35 16 78 3 42
11 101 16 131 5 30 9 139 9 243 0 184 0 188 -20 176 -16 -10 -23 -9 -45 12
-25 24 -38 29 -85 33 -14 1 -55 21 -92 45 -37 23 -74 42 -83 42 -23 0 -18 19
8 30 21 8 20 9 -8 11 -16 1 -39 1 -50 0 -10 -1 -52 10 -92 24 -40 14 -80 25
-88 25 -20 0 -19 10 3 26 15 12 8 13 -48 13 -50 0 -76 -5 -115 -25z"/>
<path d="M657 8713 c-42 -7 -123 -29 -180 -48 -56 -20 -150 -51 -209 -71 -59
-19 -136 -51 -170 -70 -35 -19 -71 -37 -80 -41 -17 -5 -18 -51 -18 -774 0
-423 1 -769 3 -769 2 0 36 11 75 25 103 36 246 53 314 36 187 -44 313 -132
402 -279 60 -101 99 -269 78 -341 -7 -21 -12 -52 -12 -68 0 -16 -7 -38 -15
-49 -16 -22 -20 -74 -5 -74 5 0 12 11 16 25 7 28 34 34 34 8 0 -14 3 -13 16 5
18 26 38 28 78 7 34 -18 87 -20 104 -3 8 8 15 8 27 -2 12 -10 18 -10 30 0 11
9 19 9 28 2 6 -6 69 -12 138 -13 105 -3 131 0 152 14 15 9 46 17 70 17 23 0
48 5 55 12 8 8 15 8 25 0 8 -7 60 -12 130 -13 97 -2 120 1 135 14 12 11 36 17
63 17 25 0 50 5 57 12 8 8 15 8 26 -1 11 -10 16 -9 23 1 17 27 49 38 77 25 14
-7 26 -18 26 -24 0 -10 28 -13 104 -13 58 0 107 -4 110 -9 7 -11 105 -11 112
0 3 5 20 9 38 9 19 0 39 6 45 14 9 11 51 14 196 15 109 0 192 4 204 10 11 6
69 11 129 11 92 0 111 3 116 16 5 13 9 14 20 5 10 -9 20 -9 41 1 21 9 31 9 47
-1 14 -9 24 -9 31 -2 7 7 16 7 30 0 13 -8 22 -8 30 0 7 7 19 5 38 -6 26 -16
29 -16 47 0 17 16 21 16 32 2 16 -19 94 -20 113 -1 9 9 47 16 113 19 54 3 113
8 129 12 17 4 57 10 90 15 33 4 71 12 85 18 14 6 38 13 54 17 15 3 26 9 23 12
-7 7 37 43 52 43 20 0 11 15 -34 59 -24 23 -47 51 -50 62 -4 10 -10 19 -15 19
-4 0 -10 8 -14 18 -3 9 -9 24 -14 32 -18 30 -41 86 -48 113 -5 24 -3 27 18 27
13 0 35 -10 49 -22 29 -26 85 -58 102 -58 7 0 26 -8 42 -17 46 -25 354 -25
449 0 125 34 375 149 466 215 94 69 90 60 90 211 0 75 4 142 9 149 5 8 26 15
47 16 102 7 90 -4 98 94 4 48 11 197 16 331 6 197 11 246 23 259 14 13 170 15
1418 14 1120 -1 1404 -4 1410 -14 3 -7 12 -161 18 -342 6 -180 14 -332 17
-337 3 -5 31 -9 63 -9 38 0 63 -5 70 -14 8 -9 11 -62 10 -160 -1 -164 -7 -150
89 -220 99 -72 224 -130 422 -196 202 -68 424 -44 567 62 29 21 55 38 58 38
14 0 2 -61 -19 -92 -13 -20 -36 -56 -51 -82 -44 -76 -143 -169 -215 -204 -118
-57 -216 -87 -300 -94 l-35 -3 -3 -642 c-2 -618 -1 -643 17 -652 10 -6 71 -10
134 -9 80 0 121 -3 132 -12 12 -10 15 -41 15 -164 1 -159 10 -204 40 -186 9 6
268 10 643 10 503 0 634 3 660 13 68 29 110 86 180 248 14 33 24 39 139 84
190 74 268 112 333 163 166 129 249 261 281 447 14 83 14 108 4 178 -31 200
-93 308 -224 392 -84 53 -163 75 -270 75 -55 0 -98 4 -101 10 -4 6 0 22 9 35
15 23 59 156 86 256 27 105 11 304 -33 408 -26 62 -94 166 -136 210 -163 169
-447 234 -686 156 -44 -15 -90 -33 -102 -41 -47 -30 -66 -19 -98 53 -79 178
-217 326 -370 398 -196 92 -363 84 -605 -27 -36 -17 -74 -39 -86 -49 -25 -23
-50 -16 -60 14 -12 44 -68 153 -97 192 -31 40 -50 60 -121 121 -36 31 -38 36
-28 59 6 14 16 25 22 25 5 0 10 5 10 11 0 12 -16 10 -150 -11 -95 -15 -375 -7
-445 13 -190 55 -248 87 -385 216 -54 51 -65 58 -72 44 -9 -21 -163 -125 -233
-158 -44 -20 -88 -41 -97 -46 -63 -32 -301 -69 -442 -69 -120 0 -344 38 -404
69 -9 5 -37 17 -62 27 -25 11 -92 50 -150 89 -58 38 -110 73 -117 78 -8 5 -36
-15 -78 -52 -65 -59 -172 -131 -194 -131 -6 0 -19 -4 -29 -9 -9 -6 -51 -20
-92 -33 -68 -21 -95 -23 -275 -23 -221 1 -270 10 -434 79 -88 38 -170 45 -332
26 -238 -27 -462 -110 -624 -230 -180 -134 -356 -367 -434 -577 -13 -34 -30
-64 -39 -68 -10 -3 -55 -9 -102 -11 -182 -11 -373 -68 -430 -129 -13 -14 -29
-25 -36 -25 -7 0 -31 39 -54 88 -88 182 -183 265 -380 333 -117 40 -398 28
-492 -22 -49 -25 -78 0 -78 69 0 21 -9 74 -20 118 -68 268 -165 454 -324 623
-196 207 -514 343 -796 339 -47 0 -120 -7 -163 -15z m253 -2454 c0 -5 -4 -9
-10 -9 -5 0 -10 7 -10 16 0 8 5 12 10 9 6 -3 10 -10 10 -16z"/>
<path d="M21625 8413 c-61 -3 -170 -23 -259 -49 -26 -8 -55 -14 -62 -14 -8 0
-22 -4 -32 -10 -9 -5 -43 -21 -74 -35 -32 -15 -60 -30 -63 -36 -4 -5 -15 -9
-26 -9 -10 0 -19 -7 -19 -15 0 -9 -9 -15 -25 -15 -14 0 -25 -4 -25 -10 0 -5 8
-10 17 -10 9 0 24 -6 32 -13 29 -25 96 -40 119 -28 27 15 195 14 209 0 9 -9
16 -8 28 5 29 29 52 37 59 21 7 -20 62 -19 100 0 31 17 62 19 70 7 8 -13 67
-13 98 -1 22 9 33 8 53 -5 13 -9 37 -16 53 -16 15 0 33 -5 40 -12 9 -9 21 -9
49 0 21 6 60 13 86 15 27 3 57 13 68 23 12 10 26 19 32 19 7 1 29 9 51 19 21
9 46 14 55 10 25 -11 111 -15 111 -5 0 5 -11 12 -25 15 -14 4 -25 11 -25 16 0
6 -8 10 -18 10 -10 0 -27 7 -38 15 -10 8 -29 15 -41 15 -12 0 -28 7 -37 15 -8
8 -21 15 -30 15 -8 0 -27 5 -43 12 -103 43 -275 62 -488 51z m-505 -187 c0 -3
-4 -8 -10 -11 -5 -3 -10 -1 -10 4 0 6 5 11 10 11 6 0 10 -2 10 -4z"/>
<path d="M22735 8218 c-44 -5 -99 -15 -123 -23 -49 -17 -118 -20 -127 -5 -3 6
-16 10 -28 10 -20 0 -20 -1 -2 -13 17 -14 17 -15 -2 -33 -11 -10 -30 -26 -43
-34 -151 -97 -321 -407 -281 -513 12 -30 65 -58 159 -83 64 -17 89 -18 94 -3
3 9 14 8 40 -1 30 -11 40 -11 52 -1 9 8 26 11 40 7 16 -4 26 -1 30 9 3 8 14
15 25 15 11 0 23 4 26 10 9 14 158 84 230 108 33 11 107 25 165 32 113 13 145
26 152 62 3 13 18 68 32 123 50 184 67 283 52 292 -6 4 -25 6 -43 4 -18 -1
-55 4 -81 13 -56 18 -187 37 -245 35 -23 -1 -78 -6 -122 -11z"/>
<path d="M21000 8203 c-29 -12 -83 -64 -74 -72 4 -3 9 0 11 7 3 6 13 12 24 12
10 0 19 5 19 10 0 6 11 15 25 20 14 5 25 14 25 20 0 11 -7 12 -30 3z"/>
<path d="M24940 8203 c0 -17 -107 -172 -133 -194 -15 -13 -45 -40 -66 -59 -67
-62 -90 -79 -116 -86 -39 -10 -38 -20 5 -34 32 -11 124 -12 448 -6 224 3 421
10 437 15 17 5 26 10 20 10 -45 5 -153 34 -206 55 -193 79 -316 171 -364 272
-15 32 -25 43 -25 27z"/>
<path d="M26663 8164 c-68 -82 -175 -159 -316 -228 -72 -35 -152 -69 -176 -76
-24 -6 -40 -15 -35 -20 5 -4 217 -10 472 -13 391 -5 462 -4 462 8 0 8 -18 19
-42 26 -24 6 -58 24 -78 40 -19 16 -39 33 -45 37 -108 80 -185 175 -185 228 0
50 -15 49 -57 -2z"/>
<path d="M23965 8080 c3 -5 23 -10 43 -10 28 0 33 3 22 10 -20 13 -73 13 -65
0z"/>
<path d="M27460 7890 c-19 -5 -57 -14 -85 -19 -27 -6 -61 -16 -75 -22 -285
-127 -456 -257 -691 -529 -59 -69 -118 -134 -131 -146 -13 -11 -32 -33 -43
-47 -11 -14 -29 -26 -40 -27 -19 0 -106 52 -150 90 -19 17 -88 41 -200 71 -29
8 -101 14 -175 14 -117 0 -131 -2 -220 -34 -122 -44 -129 -48 -255 -163 -71
-65 -118 -166 -149 -320 -9 -42 -16 -96 -16 -118 0 -59 -14 -80 -53 -80 -36 0
-156 -24 -234 -46 -173 -50 -351 -181 -455 -334 -52 -77 -108 -189 -108 -216
0 -11 -5 -25 -10 -30 -6 -6 -12 -31 -13 -55 -2 -36 1 -44 18 -47 11 -2 24 -10
28 -18 4 -8 17 -14 28 -14 10 0 28 -4 39 -10 11 -5 28 -14 38 -19 32 -15 102
-24 102 -12 0 6 7 11 15 11 8 0 15 -5 15 -10 0 -6 13 -9 29 -8 15 1 41 -6 56
-16 38 -25 251 -29 265 -6 8 13 13 13 32 1 29 -18 272 -18 294 0 9 8 18 8 27
2 19 -16 125 -25 147 -13 11 6 46 12 78 14 31 2 78 7 105 11 32 5 47 4 47 -4
0 -6 9 -11 20 -11 13 0 20 7 20 20 0 21 15 27 25 10 3 -5 28 -10 54 -10 26 0
53 -6 59 -12 10 -10 17 -10 32 0 11 6 26 12 34 12 7 0 19 6 25 13 14 17 156
14 177 -4 11 -9 20 -6 40 15 l26 26 159 -5 c98 -3 160 -1 164 5 9 14 208 13
222 -1 7 -7 19 -8 30 -4 21 9 39 10 151 13 79 2 83 3 92 28 8 21 13 24 24 15
17 -14 145 -21 169 -9 12 6 19 5 23 -6 5 -12 10 -13 24 -4 14 9 23 8 41 -4 22
-14 27 -13 75 13 29 15 55 25 58 22 3 -4 6 3 6 13 0 22 70 134 116 185 104
118 203 196 308 243 154 70 229 87 418 93 185 6 291 -11 433 -67 49 -20 180
-86 183 -92 2 -5 8 -8 13 -8 11 0 72 -42 77 -52 2 -5 8 -8 13 -8 5 0 17 -8 27
-17 10 -10 37 -34 60 -54 47 -42 142 -164 142 -183 0 -17 -20 -35 -115 -104
-96 -70 -223 -193 -288 -279 -125 -164 -224 -391 -258 -588 -21 -128 -27 -149
-45 -162 -26 -20 -456 -15 -476 5 -6 6 -23 12 -36 12 -24 0 -171 65 -182 80
-3 4 -17 10 -32 14 -16 3 -28 11 -28 17 0 6 -13 7 -34 4 -20 -4 -36 -2 -40 4
-9 14 -26 14 -26 1 0 -5 7 -10 15 -10 8 0 15 -9 15 -20 0 -11 4 -20 9 -20 5 0
12 -8 15 -17 4 -10 19 -32 34 -50 15 -17 44 -57 65 -87 l37 -55 48 4 c26 3 92
7 146 10 55 2 104 9 110 15 13 13 49 13 63 -1 7 -7 51 -12 111 -13 84 -1 103
2 120 17 12 11 18 25 16 32 -6 15 23 28 31 15 3 -5 9 -48 12 -95 l6 -85 1558
0 1559 0 0 966 0 966 -162 -4 c-155 -4 -191 -9 -318 -45 -70 -19 -200 -72
-221 -90 -8 -7 -19 -13 -22 -13 -18 0 -122 -85 -197 -160 -66 -66 -88 -93
-119 -145 -45 -75 -45 -75 -99 -50 -181 86 -204 99 -191 112 7 7 13 132 16
357 7 413 10 401 -100 501 -59 54 -77 65 -106 65 -29 0 -93 32 -121 60 -15 15
-119 67 -175 88 -53 19 -226 44 -269 37 -201 -29 -281 -53 -391 -119 -66 -40
-65 -39 -155 -126 -43 -41 -93 -97 -112 -125 -19 -27 -40 -50 -47 -50 -12 0
-32 43 -51 110 -22 80 -82 217 -138 319 -198 358 -544 605 -937 668 -91 14
-251 19 -295 8z"/>
<path d="M6643 6935 c0 -38 2 -53 4 -32 2 20 2 52 0 70 -2 17 -4 1 -4 -38z"/>
<path d="M6548 6888 c0 -18 -2 -46 -3 -61 -1 -15 2 -30 6 -33 5 -3 9 24 9 60
0 67 -9 92 -12 34z"/>
<path d="M6993 6675 c0 -27 2 -38 4 -22 2 15 2 37 0 50 -2 12 -4 0 -4 -28z"/>
<path d="M6612 6680 c0 -19 2 -27 5 -17 2 9 2 25 0 35 -3 9 -5 1 -5 -18z"/>
<path d="M6905 6698 c-4 -10 -4 -26 0 -35 8 -17 8 -17 12 0 3 9 3 25 0 35 -4
16 -4 16 -12 0z"/>
<path d="M20525 6690 c-452 -5 -492 -6 -517 -23 -40 -28 -58 -61 -58 -111 0
-36 6 -52 29 -78 l29 -33 719 0 719 0 77 65 c89 75 191 134 261 151 33 8 44
14 35 20 -19 10 -694 15 -1294 9z"/>
<path d="M0 5506 l0 -824 708 -7 c389 -4 968 -5 1287 -1 319 3 969 9 1445 12
547 4 870 10 878 17 18 14 15 71 -6 90 -17 16 -101 17 -1004 17 -1079 0 -1002
-5 -1014 61 -47 248 -163 500 -327 714 -33 43 -188 195 -199 195 -4 0 -13 6
-20 13 -15 15 -148 94 -198 119 -209 101 -380 125 -618 87 -74 -11 -86 -11
-117 4 -20 9 -45 17 -55 17 -28 0 -25 16 11 62 24 30 29 42 20 51 -9 9 -13 7
-17 -10 -3 -12 -12 -24 -20 -27 -8 -3 -14 -12 -14 -21 0 -8 -7 -15 -15 -15 -8
0 -15 -5 -15 -11 0 -6 -17 -28 -39 -48 -103 -98 -120 -102 -93 -27 44 126 -13
356 -89 356 -32 0 -122 -46 -153 -79 -29 -30 -32 -55 -36 -297 0 -44 -21 -68
-52 -61 -39 10 -48 45 -48 196 0 137 0 137 -27 163 -46 43 -111 78 -143 78
l-30 0 0 -824z"/>
<path d="M4568 6313 c6 -2 18 -2 25 0 6 3 1 5 -13 5 -14 0 -19 -2 -12 -5z"/>
<path d="M804 6177 c-9 -24 6 -44 18 -22 7 11 6 21 -1 28 -7 7 -12 6 -17 -6z"/>
<path d="M24331 5793 c1 -34 2 -35 9 -13 11 36 11 50 0 50 -5 0 -10 -17 -9
-37z"/>
<path d="M27432 5805 c0 -16 2 -22 5 -12 2 9 2 23 0 30 -3 6 -5 -1 -5 -18z"/>
<path d="M24960 5310 c-110 -13 -204 -30 -214 -40 -6 -6 -18 -10 -28 -10 -17
0 -42 -9 -138 -53 -116 -52 -272 -182 -316 -262 -10 -19 -23 -35 -29 -36 -5 0
-284 -1 -620 -3 -415 -2 -626 -6 -660 -14 -27 -6 -66 -14 -85 -17 -28 -4 -42
-15 -69 -56 -29 -42 -34 -59 -35 -107 -1 -48 4 -64 29 -99 17 -24 39 -46 50
-50 22 -9 3109 -5 3139 4 17 5 18 14 14 112 -5 111 -9 123 -81 241 -44 72
-138 169 -212 219 -62 42 -226 121 -250 121 -12 0 -25 4 -30 9 -6 5 -41 14
-80 21 -177 30 -254 34 -385 20z"/>
<path d="M22043 4985 c0 -27 2 -38 4 -22 2 15 2 37 0 50 -2 12 -4 0 -4 -28z"/>
<path d="M22183 4883 c31 -2 83 -2 115 0 31 2 5 3 -58 3 -63 0 -89 -1 -57 -3z"/>
<path d="M27910 4590 c0 -5 14 -10 31 -10 17 0 28 4 24 10 -3 6 -17 10 -31 10
-13 0 -24 -4 -24 -10z"/>
</g>
</svg>
